<mxfile host="app.diagrams.net" modified="2023-10-08T11:34:27.651Z" agent="Mozilla/5.0 (Windows NT 10.0; Win64; x64) AppleWebKit/537.36 (KHTML, like Gecko) Chrome/117.0.0.0 Safari/537.36 Edg/117.0.2045.47" etag="9tWQJy1JNsGEKbqjVykz" version="22.0.0" type="device">
  <diagram name="Page-1" id="nxFsVUmhZpqAVDChvqix">
    <mxGraphModel dx="1303" dy="711" grid="1" gridSize="10" guides="1" tooltips="1" connect="1" arrows="1" fold="1" page="1" pageScale="1" pageWidth="2336" pageHeight="1654" math="0" shadow="0">
      <root>
        <mxCell id="0" />
        <mxCell id="1" parent="0" />
        <mxCell id="PHypDGCCW43B0mlbF75D-3" style="edgeStyle=orthogonalEdgeStyle;rounded=0;orthogonalLoop=1;jettySize=auto;html=1;" edge="1" parent="1" source="PHypDGCCW43B0mlbF75D-1" target="PHypDGCCW43B0mlbF75D-2">
          <mxGeometry relative="1" as="geometry" />
        </mxCell>
        <mxCell id="PHypDGCCW43B0mlbF75D-1" value="START" style="ellipse;whiteSpace=wrap;html=1;" vertex="1" parent="1">
          <mxGeometry x="524" y="40" width="120" height="80" as="geometry" />
        </mxCell>
        <mxCell id="PHypDGCCW43B0mlbF75D-5" style="edgeStyle=orthogonalEdgeStyle;rounded=0;orthogonalLoop=1;jettySize=auto;html=1;entryX=0.5;entryY=0;entryDx=0;entryDy=0;" edge="1" parent="1" source="PHypDGCCW43B0mlbF75D-2" target="PHypDGCCW43B0mlbF75D-4">
          <mxGeometry relative="1" as="geometry" />
        </mxCell>
        <mxCell id="PHypDGCCW43B0mlbF75D-2" value="int bil1=28, bil2=54, bil3=15, bilMaks" style="shape=hexagon;perimeter=hexagonPerimeter2;whiteSpace=wrap;html=1;fixedSize=1;" vertex="1" parent="1">
          <mxGeometry x="496.5" y="160" width="175" height="110" as="geometry" />
        </mxCell>
        <mxCell id="PHypDGCCW43B0mlbF75D-7" style="edgeStyle=orthogonalEdgeStyle;rounded=0;orthogonalLoop=1;jettySize=auto;html=1;entryX=0.5;entryY=0;entryDx=0;entryDy=0;" edge="1" parent="1" source="PHypDGCCW43B0mlbF75D-4" target="PHypDGCCW43B0mlbF75D-6">
          <mxGeometry relative="1" as="geometry" />
        </mxCell>
        <mxCell id="PHypDGCCW43B0mlbF75D-4" value="input bi1, bil2, bil3" style="shape=parallelogram;perimeter=parallelogramPerimeter;whiteSpace=wrap;html=1;fixedSize=1;" vertex="1" parent="1">
          <mxGeometry x="498" y="320" width="174" height="80" as="geometry" />
        </mxCell>
        <mxCell id="PHypDGCCW43B0mlbF75D-9" value="" style="edgeStyle=orthogonalEdgeStyle;rounded=0;orthogonalLoop=1;jettySize=auto;html=1;" edge="1" parent="1" source="PHypDGCCW43B0mlbF75D-6" target="PHypDGCCW43B0mlbF75D-8">
          <mxGeometry relative="1" as="geometry" />
        </mxCell>
        <mxCell id="PHypDGCCW43B0mlbF75D-6" value="inisialisasi bilMaks=bil1" style="rounded=0;whiteSpace=wrap;html=1;" vertex="1" parent="1">
          <mxGeometry x="502" y="440" width="165" height="80" as="geometry" />
        </mxCell>
        <mxCell id="PHypDGCCW43B0mlbF75D-11" value="IYA" style="edgeStyle=orthogonalEdgeStyle;rounded=0;orthogonalLoop=1;jettySize=auto;html=1;entryX=0;entryY=0.5;entryDx=0;entryDy=0;" edge="1" parent="1" source="PHypDGCCW43B0mlbF75D-8" target="PHypDGCCW43B0mlbF75D-10">
          <mxGeometry relative="1" as="geometry" />
        </mxCell>
        <mxCell id="PHypDGCCW43B0mlbF75D-14" value="TIDAK" style="edgeStyle=orthogonalEdgeStyle;rounded=0;orthogonalLoop=1;jettySize=auto;html=1;entryX=0.5;entryY=0;entryDx=0;entryDy=0;" edge="1" parent="1" source="PHypDGCCW43B0mlbF75D-8" target="PHypDGCCW43B0mlbF75D-13">
          <mxGeometry relative="1" as="geometry" />
        </mxCell>
        <mxCell id="PHypDGCCW43B0mlbF75D-8" value="bil2 &amp;gt; bilMaks" style="rhombus;whiteSpace=wrap;html=1;" vertex="1" parent="1">
          <mxGeometry x="528" y="550" width="114" height="120" as="geometry" />
        </mxCell>
        <mxCell id="PHypDGCCW43B0mlbF75D-19" style="edgeStyle=orthogonalEdgeStyle;rounded=0;orthogonalLoop=1;jettySize=auto;html=1;entryX=0;entryY=0.5;entryDx=0;entryDy=0;" edge="1" parent="1" source="PHypDGCCW43B0mlbF75D-10" target="PHypDGCCW43B0mlbF75D-17">
          <mxGeometry relative="1" as="geometry" />
        </mxCell>
        <mxCell id="PHypDGCCW43B0mlbF75D-10" value="bilMaks=bil2" style="rounded=0;whiteSpace=wrap;html=1;" vertex="1" parent="1">
          <mxGeometry x="690" y="570" width="160" height="80" as="geometry" />
        </mxCell>
        <mxCell id="PHypDGCCW43B0mlbF75D-16" value="IYA" style="edgeStyle=orthogonalEdgeStyle;rounded=0;orthogonalLoop=1;jettySize=auto;html=1;" edge="1" parent="1" source="PHypDGCCW43B0mlbF75D-13" target="PHypDGCCW43B0mlbF75D-15">
          <mxGeometry relative="1" as="geometry" />
        </mxCell>
        <mxCell id="PHypDGCCW43B0mlbF75D-26" value="TIDAK" style="edgeStyle=orthogonalEdgeStyle;rounded=0;orthogonalLoop=1;jettySize=auto;html=1;entryX=0;entryY=0.5;entryDx=0;entryDy=0;" edge="1" parent="1" source="PHypDGCCW43B0mlbF75D-13" target="PHypDGCCW43B0mlbF75D-25">
          <mxGeometry relative="1" as="geometry" />
        </mxCell>
        <mxCell id="PHypDGCCW43B0mlbF75D-13" value="bil3 &amp;gt; bilMaks" style="rhombus;whiteSpace=wrap;html=1;" vertex="1" parent="1">
          <mxGeometry x="527" y="710" width="114" height="120" as="geometry" />
        </mxCell>
        <mxCell id="PHypDGCCW43B0mlbF75D-18" style="edgeStyle=orthogonalEdgeStyle;rounded=0;orthogonalLoop=1;jettySize=auto;html=1;entryX=0;entryY=0.5;entryDx=0;entryDy=0;" edge="1" parent="1" source="PHypDGCCW43B0mlbF75D-15" target="PHypDGCCW43B0mlbF75D-17">
          <mxGeometry relative="1" as="geometry" />
        </mxCell>
        <mxCell id="PHypDGCCW43B0mlbF75D-15" value="bilMaks=bil2" style="rounded=0;whiteSpace=wrap;html=1;" vertex="1" parent="1">
          <mxGeometry x="690" y="730" width="160" height="80" as="geometry" />
        </mxCell>
        <mxCell id="PHypDGCCW43B0mlbF75D-22" style="edgeStyle=orthogonalEdgeStyle;rounded=0;orthogonalLoop=1;jettySize=auto;html=1;entryX=0;entryY=0.5;entryDx=0;entryDy=0;" edge="1" parent="1" source="PHypDGCCW43B0mlbF75D-17" target="PHypDGCCW43B0mlbF75D-21">
          <mxGeometry relative="1" as="geometry" />
        </mxCell>
        <mxCell id="PHypDGCCW43B0mlbF75D-17" value="output bilMaks" style="shape=parallelogram;perimeter=parallelogramPerimeter;whiteSpace=wrap;html=1;fixedSize=1;" vertex="1" parent="1">
          <mxGeometry x="910" y="650" width="174" height="80" as="geometry" />
        </mxCell>
        <mxCell id="PHypDGCCW43B0mlbF75D-21" value="FINISH" style="ellipse;whiteSpace=wrap;html=1;" vertex="1" parent="1">
          <mxGeometry x="1120" y="635" width="160" height="110" as="geometry" />
        </mxCell>
        <mxCell id="PHypDGCCW43B0mlbF75D-27" style="edgeStyle=orthogonalEdgeStyle;rounded=0;orthogonalLoop=1;jettySize=auto;html=1;entryX=0;entryY=0.5;entryDx=0;entryDy=0;" edge="1" parent="1" source="PHypDGCCW43B0mlbF75D-25" target="PHypDGCCW43B0mlbF75D-17">
          <mxGeometry relative="1" as="geometry">
            <Array as="points">
              <mxPoint x="880" y="875" />
              <mxPoint x="880" y="690" />
            </Array>
          </mxGeometry>
        </mxCell>
        <mxCell id="PHypDGCCW43B0mlbF75D-25" value="bilMaks=bil1" style="rounded=0;whiteSpace=wrap;html=1;" vertex="1" parent="1">
          <mxGeometry x="610" y="840" width="130" height="70" as="geometry" />
        </mxCell>
      </root>
    </mxGraphModel>
  </diagram>
</mxfile>
